<svg xmlns="http://www.w3.org/2000/svg" viewBox="0 0 300.005 300.005"><path d="M248.068 203.507c.843-5.486.703-14.104-2.469-20.376-5.353-10.6-14.939-17.45-24.419-17.45-2.703 0-5.301.573-7.724 1.701l-16.049 7.371a5.192 5.192 0 01-6.86-2.505l-13.456-28.584c-1.751-3.758-5.719-5.932-8.598-4.593-1.717.799-2.404 2.482-2.661 3.413-.519 1.888-.283 4.113.646 6.108l21.888 46.937c.283.607.438 1.242.48 1.873a5.186 5.186 0 01-7.316 5.312l-9.529-4.37c-.711-.327-1.421-.493-2.106-.493-1.854 0-3.299 1.227-3.867 3.284-.957 3.47 1.079 7.835 4.357 9.334l27.749 12.706c.233.106.456.228.669.368.405.265 9.062 6.007 16.016 19.647l38.264-17.484c-2.717-7.06-5.77-17.24-5.015-22.199zm-116.576 11.445h24.357v15.562h-24.357z"/><path d="M173.353 187.883l-14.459-31.004c-2.866 1.675-6.178 2.716-9.537 3.107v7.822h-12.372v-7.446c-9.708-1.185-16.84-6.066-20.155-13.832l-.508-1.196 11.479-4.86.506 1.196c1.751 4.16 7.828 7.296 14.13 7.296 2.822 0 12.029-.511 12.029-7.096 0-3.426-3.945-5.491-12.411-6.492-9.13-1.022-22.941-2.563-22.941-17.229 0-8.956 6.653-15.222 17.87-16.923v-6.863h12.372v6.896c5.226.941 12.063 3.26 15.886 11.085l.584 1.188-10.569 4.889-.599-.993c-1.743-2.879-7.086-5.224-11.907-5.224-3.294 0-10.95.578-10.95 5.942 0 3.826 4.946 4.718 11.409 5.491 6.658.817 14.893 1.847 19.888 6.58.335-.189.669-.384 1.019-.547a14.69 14.69 0 016.264-1.38c4.251 0 8.349 1.756 11.573 4.741v-65.82h-78.156v136.025h51.616a17.362 17.362 0 01.615-4.863c1.797-6.52 7.371-10.898 13.868-10.898 1.16 0 2.315.138 3.456.408z"/><path d="M150 0C67.159 0 .002 67.162.002 150S67.159 300.005 150 300.005c82.843 0 150.003-67.165 150.003-150.005S232.843 0 150 0zm111.959 233.053l-47.52 21.714a5.177 5.177 0 01-4.046.111 5.185 5.185 0 01-2.894-2.83c-3.512-8.403-7.944-13.827-10.955-16.843-4.064 5.06-10.26 8.333-17.255 8.333h-71.234c-12.26 0-22.201-9.941-22.201-22.201V71.475c0-12.26 9.941-22.201 22.201-22.201h71.229c12.26 0 22.204 9.941 22.204 22.201v89.989l7.612-3.496c3.779-1.764 7.851-2.661 12.081-2.661 13.357 0 26.577 9.085 33.678 23.146 4.272 8.45 4.593 19.291 3.465 26.624-.329 2.511 2.809 13.84 6.181 21.071a5.18 5.18 0 01-2.546 6.905z"/></svg>